<?xml version="1.0" encoding="UTF-8" standalone="no"?>
<svg
   width="900px"
   height="900px"
   viewBox="0 0 900 900"
   version="1.1"
   xml:space="preserve"
   id="SVGRoot"
   inkscape:version="1.4.2 (f4327f4, 2025-05-13)"
   sodipodi:docname="map1.svg"
   xmlns:inkscape="http://www.inkscape.org/namespaces/inkscape"
   xmlns:sodipodi="http://sodipodi.sourceforge.net/DTD/sodipodi-0.dtd"
   xmlns="http://www.w3.org/2000/svg"
   xmlns:svg="http://www.w3.org/2000/svg"><defs
   id="defs48" />
<sodipodi:namedview
   pagecolor="#a9a9a9"
   bordercolor="#292929"
   borderopacity="1"
   inkscape:showpageshadow="2"
   inkscape:pageopacity="0.0"
   inkscape:pagecheckerboard="0"
   inkscape:deskcolor="#232323"
   id="namedview1"
   inkscape:zoom="1.8111111"
   inkscape:cx="242.39264"
   inkscape:cy="166.47239"
   inkscape:window-width="1920"
   inkscape:window-height="1017"
   inkscape:window-x="-8"
   inkscape:window-y="-8"
   inkscape:window-maximized="1"
   inkscape:current-layer="SVGRoot"
   inkscape:lockguides="false" />
<style
   type="text/css"
   id="style1">
g.prefab path {
  vector-effect:non-scaling-stroke;
  -inkscape-stroke:hairline;
  fill: none;
  fill-opacity: 1;
  stroke-opacity: 1;
  stroke: #00349c;
}
</style>

<path
   style="fill:#000000"
   d="M 57.423313,13.803681 33.128834,108.77301 149.07975,60.736196 Z"
   id="path63"
   sodipodi:nodetypes="cccc" /><path
   style="fill:#000000"
   d="M 33.128834,108.77301 17.668712,187.17791 138.58896,206.50307 149.07975,60.736196 Z"
   id="path64" /><path
   style="fill:#000000"
   d="m 149.07975,60.736196 118.15951,60.184054 -128.6503,85.58282 z"
   id="path65" /><path
   style="fill:#000000"
   d="m 138.58896,206.50307 40.85889,85.03067 128.65031,4.41718 45.27607,-109.8773 -86.13497,-65.15337 z"
   id="path66" /><path
   style="fill:#000000"
   d="m 149.07975,60.736196 54.11043,-36.993865 67.36197,8.834356 -3.31289,88.343563 z"
   id="path67" /><path
   style="fill:#000000"
   d="m 267.23926,120.92025 3.31289,-88.343563 78.40491,28.159509 4.41717,125.337424 z"
   id="path68" /><path
   style="fill:#000000"
   d="m 17.668712,187.17791 45.828221,86.68712 115.950917,17.66871 -40.85889,-85.03067 z"
   id="path69" /><path
   style="fill:#000000"
   d="m 57.423313,13.803681 145.766867,9.93865 -54.11043,36.993865 z"
   id="path70" />
</svg>
